# xmcd CD database file
#
# Track frame offsets:
#	150
#	18605
#	37202
#	56920
#	75247
#	93047
#	112662
#	134865
#	159977
#	181067
#	200115
#	218435
#	238825
#	260422
#	279780
#	301410
#	318657
#
# Disc length: 4413 seconds
#
# Revision: 1
# Processed by: cddbd v1.5.1PL0 Copyright (c) Steve Scherf et al.
# Submitted via: CDex 1.51
#
DISCID=e7113b11
DTITLE=Various Artist - Grammy R&B/Rap Nominees 2001
DYEAR=2001
DGENRE=R&B
TTITLE0=Try Again - Aaliyah
TTITLE1=Bag Lady - Erykah Badu
TTITLE2=He Wasn't Man Enough - Toni Braxton
TTITLE3=As We Lay - Kelly Price
TTITLE4=Gettin' In The Way - Jill Scott
TTITLE5=How Does It Feel - D'Angelo
TTITLE6=I Wanna Know - Joe
TTITLE7=I Wish - R. Kelly
TTITLE8=Stay Or Let It Go - Brian McKnight
TTITLE9=Thong Song - Sisqo'
TTITLE10=The Light - Common
TTITLE11=Party Up (Up In Here) - DMX
TTITLE12=The Real Slim Shady - Eminem
TTITLE13=Shake Ya Ass - Mystikal
TTITLE14=Country Grammar (Hot) - Nelly
TTITLE15=Alive - Beastie Boys
TTITLE16=The Next Episode - Dr. Dre/Snoop Dog
EXTD=YEAR: 2001
EXTT0=
EXTT1=
EXTT2=
EXTT3=
EXTT4=
EXTT5=
EXTT6=
EXTT7=
EXTT8=
EXTT9=
EXTT10=
EXTT11=
EXTT12=
EXTT13=
EXTT14=
EXTT15=
EXTT16=
PLAYORDER=
